<svg xmlns="http://www.w3.org/2000/svg" width="103" height="66" viewBox="0 0 103 66">
    <g fill="none">
        <path fill="#181818" fill-opacity=".5" stroke="#F1F1F3" stroke-width="1.4" d="M80.784 23.582c-.808 0-1.613.05-2.415.145-2.175-7.08-8.709-11.918-16.117-11.933-1.845-.002-3.676.304-5.419.904C52.52 3.372 42.293-1.697 32.256.515 22.218 2.728 15.073 11.623 15.08 21.898c0 1.775.222 3.544.656 5.264C6.173 28.622-.66 37.19.051 46.835.76 56.481 8.775 63.957 18.449 64h62.335C91.949 64 101 54.952 101 43.79c0-11.16-9.05-20.208-20.216-20.208zm0 37.05H18.449c-8.306.036-15.092-6.62-15.216-14.921-.124-8.302 6.461-15.156 14.765-15.367.539-.015 1.038-.287 1.342-.732.306-.445.379-1.008.198-1.516-3.344-9.566 1.63-20.042 11.158-23.5 9.528-3.46 20.068 1.387 23.643 10.869.163.44.502.791.935.97.434.18.923.17 1.348-.027 1.764-.82 3.685-1.245 5.63-1.247 6.41.012 11.93 4.525 13.21 10.804.183.913 1.072 1.503 1.984 1.319 1.099-.22 2.216-.332 3.338-.334 9.304 0 16.847 7.54 16.847 16.84 0 9.302-7.543 16.842-16.847 16.842h0z" transform="translate(1 1)"/>
        <path fill="#848485" d="M28.315 40.58c.329-.444.955-.537 1.399-.208.444.328.537.955.208 1.399C28.892 43.16 27.265 44 25.5 44c-1.765 0-3.392-.838-4.422-2.23-.329-.443-.236-1.07.208-1.398.444-.329 1.07-.236 1.399.208.657.887 1.69 1.42 2.815 1.42 1.124 0 2.158-.533 2.815-1.42zM48.315 40.58c.329-.444.955-.537 1.399-.208.444.328.537.955.208 1.399C48.892 43.16 47.265 44 45.5 44c-1.765 0-3.392-.838-4.422-2.23-.329-.443-.236-1.07.208-1.398.444-.329 1.07-.236 1.399.208.657.887 1.69 1.42 2.815 1.42 1.124 0 2.158-.533 2.815-1.42zM42.16 50.273c.552 0 1 .448 1 1 0 .513-.387.936-.884.993l-.117.007H30c-.552 0-1-.448-1-1 0-.513.386-.935.883-.993l.117-.007h12.16z" transform="translate(1 1)"/>
    </g>
</svg>
