<svg xmlns="http://www.w3.org/2000/svg" width="20" height="21" viewBox="0 0 20 21">
    <path fill="#1E2A3F" d="M8.847 13.862l.823-.822c.326-.326.472-.752.457-1.164-.007-.174-.129-.395-.272-.493-.113-.078-.259-.19-.404-.335-1.096-1.096-1.1-2.876 0-3.977l2.625-2.625c1.103-1.103 2.903-1.096 3.997.02 1.084 1.105 1.05 2.888-.045 3.983l-.51.511c-.17.17-.226.421-.149.649.23.672.354 1.367.379 2.06.02.543.682.798 1.066.414l1.45-1.45c2.315-2.315 2.315-6.082 0-8.397-2.315-2.315-6.082-2.315-8.397 0l-2.64 2.64c-2.287 2.3-2.32 6.046.015 8.382.205.205.564.506.801.672.25.174.589.148.804-.068zm1.286 4.902l2.64-2.64c2.287-2.3 2.32-6.046-.015-8.382-.205-.205-.564-.506-.801-.672-.25-.174-.589-.148-.804.068l-.823.822c-.326.326-.472.752-.457 1.164.007.174.128.395.272.493.113.078.259.19.403.335 1.097 1.096 1.102 2.876 0 3.977l-2.625 2.625c-1.103 1.103-2.902 1.096-3.997-.02-1.084-1.105-1.05-2.888.046-3.983l.51-.511c.17-.17.226-.421.149-.649-.23-.672-.354-1.367-.379-2.06-.02-.543-.682-.798-1.066-.414l-1.45 1.45c-2.315 2.315-2.315 6.082 0 8.397 2.315 2.315 6.082 2.315 8.397 0z"/>
</svg>
