<svg xmlns="http://www.w3.org/2000/svg" width="40" height="40" viewBox="0 0 40 40">
    <g fill="#030104">
        <path d="M2.835 19.942c0 6.77 3.934 12.623 9.642 15.396L4.315 12.98c-.947 2.126-1.48 4.482-1.48 6.962zm28.656-.865c0-2.114-.759-3.579-1.411-4.717-.866-1.41-1.68-2.602-1.68-4.012 0-1.571 1.192-3.036 2.872-3.036.076 0 .148.01.223.013-3.044-2.79-7.1-4.491-11.552-4.491-5.977 0-11.235 3.066-14.294 7.712.402.012.78.02 1.102.02 1.789 0 4.558-.218 4.558-.218.922-.054 1.031 1.301.11 1.41 0 0-.928.108-1.957.162l6.229 18.53 3.744-11.227-2.664-7.303c-.922-.054-1.796-.162-1.796-.162-.923-.055-.813-1.466.108-1.41 0 0 2.825.218 4.505.218 1.789 0 4.56-.218 4.56-.218.923-.054 1.03 1.301.109 1.41 0 0-.93.108-1.957.162l6.182 18.39 1.707-5.702c.868-2.223 1.302-4.065 1.302-5.531zm-11.248 2.361L15.11 36.352c1.534.451 3.154.697 4.834.697 1.99 0 3.903-.344 5.682-.969-.045-.074-.088-.152-.123-.235l-5.259-14.407zm14.71-9.704c.076.544.116 1.13.116 1.76 0 1.735-.326 3.686-1.301 6.126l-5.225 15.108c5.086-2.966 8.506-8.476 8.506-14.786 0-2.976-.76-5.773-2.095-8.208z"/>
        <path d="M0 19.942c0 10.995 8.946 19.943 19.942 19.943 10.998 0 19.943-8.948 19.943-19.943C39.885 8.946 30.94 0 19.943 0S0 8.945 0 19.942zm.914 0C.914 9.45 9.449.914 19.942.914 30.434.914 38.97 9.45 38.97 19.942c0 10.49-8.537 19.027-19.028 19.027-10.49 0-19.03-8.537-19.03-19.027z"/>
    </g>
</svg>
